<svg width="963" height="752" viewBox="0 0 963 752" fill="none" xmlns="http://www.w3.org/2000/svg">
    <path d="M248.149 345.293C248.149 345.293 262.514 382.025 227.848 426.384C217.529 439.302 203.198 442.134 186.804 442.061C169.689 442.326 157.183 429.88 140.752 431.232C154.38 428.024 162.88 416.485 178.506 418.676C160.92 409.661 143.721 413.132 128.444 424.85C113.889 436.231 99.5573 439.064 83.8554 426.178C97.0063 427.591 102.629 417.046 110.333 408.693C100.126 417.336 88.4374 414.535 78.2666 408.21C65.6305 400.75 58.5441 399.139 43.2187 399.094C60.9423 389.222 61.6716 374.984 84.928 385.216C97.6108 390.895 114.268 394.539 118.324 375.754C95.7646 393.341 85.3198 370.256 65.5506 362.967C51.4244 357.963 45.8298 367.44 33.3073 369.251C20.7849 371.061 10.3045 362.946 1.97055 354.529C19.8842 364.622 32.1513 345.34 46.6133 337.521C63.2496 328.333 83.1978 342.399 101.85 337.898C105.85 321.25 87.1514 327.533 80.3372 329.136C69.5864 331.35 57.8042 332.111 52.0755 319.486C80.5628 334.132 91.9648 293.442 117.845 298.753C127.772 300.795 136.838 322.062 146.924 318.049C162.407 312.038 138.157 298.928 131.418 297.682C138.316 292.873 148.682 291.719 157.156 294.792C168.105 298.643 168.556 308.635 176.261 313.827C186.414 320.865 198.082 310.834 188.717 300.965C185.248 297.31 171.741 295.887 166.117 292.888C182.304 287.253 205.4 289.996 219.77 299.283C237.647 310.801 241.126 327.644 248.149 345.293Z"
          fill="url(#paint0_linear_319_88)"/>
    <path d="M241.462 366.216C241.143 371.669 240.792 371.66 239.399 377.768C236.596 390.666 226.236 403.024 212.177 401.973C204.272 401.254 200.206 395.174 193.04 393.109C185.528 390.864 179.934 396.009 173.203 397.539C175.928 394.368 178.278 392.04 180.483 388.514C181.944 386.504 183.414 384.153 185.729 383.189C180.766 384.425 176.806 387.735 171.671 388.795C165.301 389.993 160.265 387.301 154.706 384.425C149.151 381.378 144.494 377.672 139.864 372.943C137.977 371.016 135.942 368.061 133.505 366.973C130.193 365.692 127.166 366.978 123.827 366.72C130.824 361.783 134.238 359.141 142.216 363.788C150.366 368.609 156.316 363.303 164.586 363.52C158.634 362.169 152.917 358.606 155.221 351.328C160.412 361.533 169.281 359.035 176.999 353.434C184.533 348.17 189.968 342.338 199.632 343.103C196.55 339.78 191.574 341.527 187.703 341.426C183.308 341.14 179.834 339.342 176.201 336.858C176.905 336.876 177.78 337.07 178.312 336.913C181.682 335.977 185.36 336.756 188.73 335.82C191.924 334.88 194.599 333.584 197.626 332.298C203.68 329.726 211.937 330.454 218.236 331.985C228.735 334.478 239.305 347.726 241.24 361.26L241.38 362.629C241.525 363.828 241.494 365.022 241.462 366.216Z"
          fill="#FFC929"/>
    <path d="M241.32 370.795C240.795 376.872 238.518 379.95 234.107 384.172C229.135 388.84 221.293 387.804 214.979 387.823C217.193 387.143 218.425 385.514 220.201 384.084C216.627 384.267 215.773 381.938 212.775 381.121C209.594 380.3 206.081 381.684 202.986 381.05C205.946 379.835 205.79 375.309 209.186 374.937C206.382 373.663 204.558 376.938 201.909 376.776C199.625 376.624 196.48 374.419 194.392 373.811C195.041 373.459 203.589 372.022 199.505 370.715C198.687 370.509 196.363 371.925 194.993 371.796C193.901 371.583 192.638 370.904 191.646 370.325C189.394 368.974 187.989 366.722 185.54 365.92C182.727 365.015 180.051 365.868 177.283 366.718C181.644 364.433 183.182 361.613 188.288 362.3C190.843 362.552 192.41 362.131 194.799 361.732C196.821 361.416 198.452 362.013 200.647 362.07C198.019 357.572 193.452 360.774 189.665 358.645C192.675 359.001 194.112 356.547 196.432 355.315C198.749 354.176 201.865 353.981 204.31 354.968C206.122 355.661 208.86 359.424 210.749 357.167C213.013 354.55 208.22 352.394 206.396 352.162C208.805 351.025 212.015 350.74 214.534 352.375C216.693 353.816 217.535 356.606 220.495 355.392C221.14 351.717 216.84 351.697 214.884 349.523C220.175 350.123 226.586 346.415 230.284 351.957C231.251 353.459 231.373 359.276 233.712 357.307C235.584 355.695 233.778 351.31 232.252 350.163C238.4 353 241.814 362.41 241.351 369.596L241.32 370.795Z"
          fill="#F9F079"/>
    <path d="M264.367 296.765C254.398 299.293 244.89 301.872 235.853 304.425C226.816 306.977 219.684 338.249 219.045 363.82C218.412 389.188 223.573 430.271 232.472 433.294C241.37 436.317 250.722 439.383 260.545 442.438L264.367 296.765Z"
          fill="url(#paint1_linear_319_88)"/>
    <path d="M435.935 490.481C560.563 517.756 701.405 529.173 828.623 472.987L833.266 296.049C709.176 233.284 567.922 237.277 442.035 257.994L314.595 284.459C302.388 287.39 290.637 290.265 279.157 293.115L275.123 446.866C286.438 450.3 298.037 453.81 310.058 457.37L435.935 490.481ZM732.179 381.934C731.24 402.447 714.434 418.521 694.188 417.99C673.965 417.459 657.98 400.525 658.125 379.991C659.057 359.471 675.908 343.406 696.131 343.936C716.377 344.468 732.317 361.393 732.179 381.934Z"
          fill="url(#paint2_linear_319_88)"/>
    <path d="M296.915 485.762L310.06 457.369L435.937 490.48C417.983 502.748 353.397 558.242 353.397 558.242L187.421 543.43L188.316 509.306L296.915 485.762Z"
          fill="url(#paint3_linear_319_88)"/>
    <path d="M363.159 186.005C363.159 186.005 424.747 244.786 442.032 257.994L314.592 284.458L302.955 255.416L195.74 226.209L196.635 192.093L363.159 186.005Z"
          fill="url(#paint4_linear_319_88)"/>
    <path d="M843.527 465.853C882.5 446.392 962.083 389.735 962.134 387.771C962.186 385.792 885.673 325.455 847.774 303.985L843.527 465.853Z"
          fill="url(#paint5_linear_319_88)"/>
    <path d="M264.368 296.763L260.546 442.436L275.124 446.864L279.159 293.113L264.368 296.763Z"
          fill="url(#paint6_linear_319_88)"/>
    <path d="M833.257 296.052L828.615 472.99L843.522 465.86L847.769 303.992L833.257 296.052Z"
          fill="url(#paint7_linear_319_88)"/>
    <path d="M801.228 281.364L797.499 485.363L815.5 478.501L818 289L801.228 281.364Z"
          fill="url(#paint8_linear_319_88)"/>
    <path d="M694.193 417.986C714.439 418.517 731.244 402.443 732.183 381.93C732.321 361.389 716.382 344.464 696.136 343.932C675.913 343.402 659.061 359.467 658.13 379.987C657.984 400.521 673.97 417.455 694.193 417.986Z"
          fill="url(#paint9_linear_319_88)"/>
    <defs>
        <linearGradient id="paint0_linear_319_88" x1="1.93698" y1="354.563" x2="289.157" y2="364.641"
                        gradientUnits="userSpaceOnUse">
            <stop stop-color="#FF89F3"/>
            <stop offset="1" stop-color="#FD7F00"/>
        </linearGradient>
        <linearGradient id="paint1_linear_319_88" x1="611.241" y1="241.444" x2="603.544" y2="534.816"
                        gradientUnits="userSpaceOnUse">
            <stop offset="0.213542" stop-color="#4BD238"/>
            <stop offset="1" stop-color="#393535"/>
        </linearGradient>
        <linearGradient id="paint2_linear_319_88" x1="611.241" y1="241.444" x2="603.544" y2="534.816"
                        gradientUnits="userSpaceOnUse">
            <stop offset="0.213542" stop-color="#4BD238"/>
            <stop offset="1" stop-color="#393535"/>
        </linearGradient>
        <linearGradient id="paint3_linear_319_88" x1="312.579" y1="435.438" x2="308.891" y2="576.013"
                        gradientUnits="userSpaceOnUse">
            <stop stop-color="#286120"/>
            <stop offset="1"/>
        </linearGradient>
        <linearGradient id="paint4_linear_319_88" x1="315.943" y1="307.089" x2="319.952" y2="154.291"
                        gradientUnits="userSpaceOnUse">
            <stop stop-color="#346C2C"/>
            <stop offset="1"/>
        </linearGradient>
        <linearGradient id="paint5_linear_319_88" x1="866.656" y1="297.074" x2="861.684" y2="486.544"
                        gradientUnits="userSpaceOnUse">
            <stop stop-color="#8C8B8B"/>
            <stop offset="1"/>
        </linearGradient>
        <linearGradient id="paint6_linear_319_88" x1="280.874" y1="245.006" x2="274.139" y2="501.707"
                        gradientUnits="userSpaceOnUse">
            <stop offset="0.1875" stop-color="white"/>
            <stop offset="1" stop-color="#393535"/>
        </linearGradient>
        <linearGradient id="paint7_linear_319_88" x1="843.006" y1="265.876" x2="836.271" y2="522.577"
                        gradientUnits="userSpaceOnUse">
            <stop offset="0.135417" stop-color="white"/>
            <stop offset="1" stop-color="#393535"/>
        </linearGradient>
        <linearGradient id="paint8_linear_319_88" x1="812.233" y1="246.945" x2="802.114" y2="543.753"
                        gradientUnits="userSpaceOnUse">
            <stop offset="0.135417" stop-color="white"/>
            <stop offset="1" stop-color="#393535"/>
        </linearGradient>
        <linearGradient id="paint9_linear_319_88" x1="692.158" y1="420.931" x2="694.242" y2="341.476"
                        gradientUnits="userSpaceOnUse">
            <stop offset="0.0885417" stop-color="#E07CC6"/>
            <stop offset="1"/>
        </linearGradient>
    </defs>
</svg>
